

solid BASICSTLCUBEX0Y0Z0
  facet normal  0.0   0.0  -12.5
    outer loop
      vertex    0   0   0
      vertex    25   81.25   0
      vertex    25   0   0
    endloop
  endfacet
  facet normal  0.0   0.0  -12.5
    outer loop
      vertex    0   0   0
      vertex    0   81.25   0
      vertex    25   81.25   0
    endloop
  endfacet
  facet normal  -25 0.0   0.0
    outer loop
      vertex    0   0   0
      vertex    0   81.25   12.5
      vertex    0   81.25   0
    endloop
  endfacet
  facet normal  -25 0.0   0.0
    outer loop
      vertex    0   0   0
      vertex    0   0   12.5
      vertex    0   81.25   12.5
    endloop
  endfacet
  facet normal  0.0  81.25  0.0
    outer loop
      vertex    0   81.25   0
      vertex    25   81.25   12.5
      vertex    25   81.25   0
    endloop
  endfacet
  facet normal  0.0  81.25  0.0
    outer loop
      vertex    0   81.25   0
      vertex    0   81.25   12.5
      vertex    25   81.25   12.5
    endloop
  endfacet
  facet normal  25  0.0 0.0
    outer loop
      vertex    25   0   0
      vertex    25   81.25   0
      vertex    25   81.25   12.5
    endloop
  endfacet
  facet normal  25  0.0 0.0
    outer loop
      vertex    25   0   0
      vertex    25   81.25   12.5
      vertex    25   0   12.5
    endloop
  endfacet
  facet normal  0.0  -81.25  0.0
    outer loop
      vertex    0   0   0
      vertex    25   0   0
      vertex    25   0   12.5
    endloop
  endfacet
  facet normal  0.0  -81.25  0.0
    outer loop
      vertex    0   0   0
      vertex    25   0   12.5
      vertex    0   0   12.5
    endloop
  endfacet
  facet normal  0.0  0.0  12.5
    outer loop
      vertex    0   0   12.5
      vertex    25   0   12.5
      vertex    25   81.25   12.5
    endloop
  endfacet
  facet normal  0.0  0.0  12.5
    outer loop
      vertex    0   0   12.5
      vertex    25   81.25   12.5
      vertex    0   81.25   12.5
    endloop
  endfacet
endsolid BASICSTLCUBEX0Y0Z0


solid BASICSTLCUBEX0Y0Z0
  facet normal  0.0   0.0  -12.5
    outer loop
      vertex    0   12.5   12.5
      vertex    12.5   25   12.5
      vertex    12.5   12.5   12.5
    endloop
  endfacet
  facet normal  0.0   0.0  -12.5
    outer loop
      vertex    0   12.5   12.5
      vertex    0   25   12.5
      vertex    12.5   25   12.5
    endloop
  endfacet
  facet normal  -12.5 0.0   0.0
    outer loop
      vertex    0   12.5   12.5
      vertex    0   25   25
      vertex    0   25   12.5
    endloop
  endfacet
  facet normal  -12.5 0.0   0.0
    outer loop
      vertex    0   12.5   12.5
      vertex    0   12.5   25
      vertex    0   25   25
    endloop
  endfacet
  facet normal  0.0  12.5  0.0
    outer loop
      vertex    0   25   12.5
      vertex    12.5   25   25
      vertex    12.5   25   12.5
    endloop
  endfacet
  facet normal  0.0  12.5  0.0
    outer loop
      vertex    0   25   12.5
      vertex    0   25   25
      vertex    12.5   25   25
    endloop
  endfacet
  facet normal  12.5  0.0 0.0
    outer loop
      vertex    12.5   12.5   12.5
      vertex    12.5   25   12.5
      vertex    12.5   25   25
    endloop
  endfacet
  facet normal  12.5  0.0 0.0
    outer loop
      vertex    12.5   12.5   12.5
      vertex    12.5   25   25
      vertex    12.5   12.5   25
    endloop
  endfacet
  facet normal  0.0  -12.5  0.0
    outer loop
      vertex    0   12.5   12.5
      vertex    12.5   12.5   12.5
      vertex    12.5   12.5   25
    endloop
  endfacet
  facet normal  0.0  -12.5  0.0
    outer loop
      vertex    0   12.5   12.5
      vertex    12.5   12.5   25
      vertex    0   12.5   25
    endloop
  endfacet
  facet normal  0.0  0.0  12.5
    outer loop
      vertex    0   12.5   25
      vertex    12.5   12.5   25
      vertex    12.5   25   25
    endloop
  endfacet
  facet normal  0.0  0.0  12.5
    outer loop
      vertex    0   12.5   25
      vertex    12.5   25   25
      vertex    0   25   25
    endloop
  endfacet
endsolid BASICSTLCUBEX0Y0Z0
 // woodside tooth

solid BASICSTLCUBEX0Y0Z0
  facet normal  0.0   0.0  -12.5
    outer loop
      vertex    0   68.75   12.5
      vertex    12.5   81.25   12.5
      vertex    12.5   68.75   12.5
    endloop
  endfacet
  facet normal  0.0   0.0  -12.5
    outer loop
      vertex    0   68.75   12.5
      vertex    0   81.25   12.5
      vertex    12.5   81.25   12.5
    endloop
  endfacet
  facet normal  -12.5 0.0   0.0
    outer loop
      vertex    0   68.75   12.5
      vertex    0   81.25   25
      vertex    0   81.25   12.5
    endloop
  endfacet
  facet normal  -12.5 0.0   0.0
    outer loop
      vertex    0   68.75   12.5
      vertex    0   68.75   25
      vertex    0   81.25   25
    endloop
  endfacet
  facet normal  0.0  12.5  0.0
    outer loop
      vertex    0   81.25   12.5
      vertex    12.5   81.25   25
      vertex    12.5   81.25   12.5
    endloop
  endfacet
  facet normal  0.0  12.5  0.0
    outer loop
      vertex    0   81.25   12.5
      vertex    0   81.25   25
      vertex    12.5   81.25   25
    endloop
  endfacet
  facet normal  12.5  0.0 0.0
    outer loop
      vertex    12.5   68.75   12.5
      vertex    12.5   81.25   12.5
      vertex    12.5   81.25   25
    endloop
  endfacet
  facet normal  12.5  0.0 0.0
    outer loop
      vertex    12.5   68.75   12.5
      vertex    12.5   81.25   25
      vertex    12.5   68.75   25
    endloop
  endfacet
  facet normal  0.0  -12.5  0.0
    outer loop
      vertex    0   68.75   12.5
      vertex    12.5   68.75   12.5
      vertex    12.5   68.75   25
    endloop
  endfacet
  facet normal  0.0  -12.5  0.0
    outer loop
      vertex    0   68.75   12.5
      vertex    12.5   68.75   25
      vertex    0   68.75   25
    endloop
  endfacet
  facet normal  0.0  0.0  12.5
    outer loop
      vertex    0   68.75   25
      vertex    12.5   68.75   25
      vertex    12.5   81.25   25
    endloop
  endfacet
  facet normal  0.0  0.0  12.5
    outer loop
      vertex    0   68.75   25
      vertex    12.5   81.25   25
      vertex    0   81.25   25
    endloop
  endfacet
endsolid BASICSTLCUBEX0Y0Z0
 // railside corner tooth

solid BASICSTLCUBEX0Y0Z0
  facet normal  0.0   0.0  -12.5
    outer loop
      vertex    25   12.5   12.5
      vertex    37.5   25   12.5
      vertex    37.5   12.5   12.5
    endloop
  endfacet
  facet normal  0.0   0.0  -12.5
    outer loop
      vertex    25   12.5   12.5
      vertex    25   25   12.5
      vertex    37.5   25   12.5
    endloop
  endfacet
  facet normal  -12.5 0.0   0.0
    outer loop
      vertex    25   12.5   12.5
      vertex    25   25   25
      vertex    25   25   12.5
    endloop
  endfacet
  facet normal  -12.5 0.0   0.0
    outer loop
      vertex    25   12.5   12.5
      vertex    25   12.5   25
      vertex    25   25   25
    endloop
  endfacet
  facet normal  0.0  12.5  0.0
    outer loop
      vertex    25   25   12.5
      vertex    37.5   25   25
      vertex    37.5   25   12.5
    endloop
  endfacet
  facet normal  0.0  12.5  0.0
    outer loop
      vertex    25   25   12.5
      vertex    25   25   25
      vertex    37.5   25   25
    endloop
  endfacet
  facet normal  12.5  0.0 0.0
    outer loop
      vertex    37.5   12.5   12.5
      vertex    37.5   25   12.5
      vertex    37.5   25   25
    endloop
  endfacet
  facet normal  12.5  0.0 0.0
    outer loop
      vertex    37.5   12.5   12.5
      vertex    37.5   25   25
      vertex    37.5   12.5   25
    endloop
  endfacet
  facet normal  0.0  -12.5  0.0
    outer loop
      vertex    25   12.5   12.5
      vertex    37.5   12.5   12.5
      vertex    37.5   12.5   25
    endloop
  endfacet
  facet normal  0.0  -12.5  0.0
    outer loop
      vertex    25   12.5   12.5
      vertex    37.5   12.5   25
      vertex    25   12.5   25
    endloop
  endfacet
  facet normal  0.0  0.0  12.5
    outer loop
      vertex    25   12.5   25
      vertex    37.5   12.5   25
      vertex    37.5   25   25
    endloop
  endfacet
  facet normal  0.0  0.0  12.5
    outer loop
      vertex    25   12.5   25
      vertex    37.5   25   25
      vertex    25   25   25
    endloop
  endfacet
endsolid BASICSTLCUBEX0Y0Z0
 // railside outside tooth

solid BASICSTLCUBEX0Y0Z0
  facet normal  0.0   0.0  -12.5
    outer loop
      vertex    0   0   0
      vertex    100   25   0
      vertex    100   0   0
    endloop
  endfacet
  facet normal  0.0   0.0  -12.5
    outer loop
      vertex    0   0   0
      vertex    0   25   0
      vertex    100   25   0
    endloop
  endfacet
  facet normal  -100 0.0   0.0
    outer loop
      vertex    0   0   0
      vertex    0   25   12.5
      vertex    0   25   0
    endloop
  endfacet
  facet normal  -100 0.0   0.0
    outer loop
      vertex    0   0   0
      vertex    0   0   12.5
      vertex    0   25   12.5
    endloop
  endfacet
  facet normal  0.0  25  0.0
    outer loop
      vertex    0   25   0
      vertex    100   25   12.5
      vertex    100   25   0
    endloop
  endfacet
  facet normal  0.0  25  0.0
    outer loop
      vertex    0   25   0
      vertex    0   25   12.5
      vertex    100   25   12.5
    endloop
  endfacet
  facet normal  100  0.0 0.0
    outer loop
      vertex    100   0   0
      vertex    100   25   0
      vertex    100   25   12.5
    endloop
  endfacet
  facet normal  100  0.0 0.0
    outer loop
      vertex    100   0   0
      vertex    100   25   12.5
      vertex    100   0   12.5
    endloop
  endfacet
  facet normal  0.0  -25  0.0
    outer loop
      vertex    0   0   0
      vertex    100   0   0
      vertex    100   0   12.5
    endloop
  endfacet
  facet normal  0.0  -25  0.0
    outer loop
      vertex    0   0   0
      vertex    100   0   12.5
      vertex    0   0   12.5
    endloop
  endfacet
  facet normal  0.0  0.0  12.5
    outer loop
      vertex    0   0   12.5
      vertex    100   0   12.5
      vertex    100   25   12.5
    endloop
  endfacet
  facet normal  0.0  0.0  12.5
    outer loop
      vertex    0   0   12.5
      vertex    100   25   12.5
      vertex    0   25   12.5
    endloop
  endfacet
endsolid BASICSTLCUBEX0Y0Z0
 // rail
